<svg width="189" height="13" viewBox="0 0 189 13" fill="none" xmlns="http://www.w3.org/2000/svg">
<path fill-rule="evenodd" clip-rule="evenodd" d="M95 3.69335L85.3568 9.67337L85 9.68518L88.0627 0.00012207L90.1365 0.28737L88.339 5.68315L94.8777 1.8054H95H95.1222L97.1553 3.0111L96.4422 4.55334L95 3.69335ZM95.0647 13.0002L94.8495 12.9999L91.5883 6.34887L93.3397 5.30703L94.9804 8.78887L96.9235 4.84353L96.9222 4.84265L97.6544 3.30719L101.661 5.68315L99.8635 0.28737L101.937 0.00012207L105 9.68518L104.643 9.67337L98.6381 5.91607L95.0647 13.0002Z" fill="#00AAEF"/>
<path fill-rule="evenodd" clip-rule="evenodd" d="M6.10352e-05 1H75V2.99983H6.10352e-05V1Z" fill="#00AAEF"/>
<path fill-rule="evenodd" clip-rule="evenodd" d="M114 1H189V2.99983H114V1Z" fill="#00AAEF"/>
</svg>
